<?xml version="1.0" encoding="UTF-8" standalone="no"?>
<!DOCTYPE svg PUBLIC "-//W3C//DTD SVG 1.1//EN" "http://www.w3.org/Graphics/SVG/1.1/DTD/svg11.dtd">
<svg version="1.1" xmlns="http://www.w3.org/2000/svg" xmlns:xlink="http://www.w3.org/1999/xlink" preserveAspectRatio="xMidYMid meet" viewBox="0 0 638 638" width="64" height="64"><defs><path d="M320 0C143.27 0 0 143.27 0 320C0 496.73 143.27 640 320 640C496.73 640 640 496.73 640 320C640 143.27 496.73 0 320 0Z" id="g2oSzHQR0"></path><path d="M33.6 0L33.6 640M97.6 640L97.6 0M161.6 0L161.6 800M225.6 800L225.6 0M289.6 0L289.6 800M0 65.6L640 65.6M640 129.6L0 129.6M0 193.6L640 193.6M640 257.6L0 257.6M0 321.6L640 321.6" id="d7F39DAfpa"></path><path d="M353.6 0L353.6 640M417.6 640L417.6 0M481.6 0L481.6 800M545.6 800L545.6 0M609.6 0L609.6 800M320 65.6L960 65.6M960 129.6L320 129.6M320 193.6L960 193.6M960 257.6L320 257.6M320 321.6L960 321.6" id="l1cRkwb70J"></path><path d="M33.6 256L33.6 896M97.6 896L97.6 256M161.6 256L161.6 1056M225.6 1056L225.6 256M289.6 256L289.6 1056M0 321.6L640 321.6M640 385.6L0 385.6M0 449.6L640 449.6M640 513.6L0 513.6M0 577.6L640 577.6" id="bxj5NT8NZ"></path><path d="M388.8 83.2C388.8 94.72 388.8 101.12 388.8 102.4C389.78 109.85 402.75 115.82 417.78 115.74C432.8 115.65 444.18 109.53 443.2 102.08C443.2 100.8 443.2 94.4 443.2 82.88M442.72 84.48C442.72 93.44 430.69 100.7 415.84 100.7C400.99 100.7 388.96 93.44 388.96 84.48M388.8 85.12C388.8 76.64 400.98 69.77 416 69.77C431.02 69.77 443.2 76.64 443.2 85.12" id="apiUZUchI"></path><path d="M388.8 236.16C388.8 247.68 388.8 254.08 388.8 255.36C389.78 262.81 402.75 268.78 417.78 268.7C432.8 268.61 444.18 262.49 443.2 255.04C443.2 253.76 443.2 247.36 443.2 235.84M442.72 237.44C442.72 246.4 430.69 253.66 415.84 253.66C400.99 253.66 388.96 246.4 388.96 237.44M388.8 238.08C388.8 229.6 400.98 222.73 416 222.73C431.02 222.73 443.2 229.6 443.2 238.08" id="ddPNGqHJY"></path><path d="M324.8 122.88C324.8 134.4 324.8 140.8 324.8 142.08C325.78 149.53 338.75 155.5 353.78 155.42C368.8 155.33 380.18 149.21 379.2 141.76C379.2 140.48 379.2 134.08 379.2 122.56M378.72 124.16C378.72 133.12 366.69 140.38 351.84 140.38C336.99 140.38 324.96 133.12 324.96 124.16M324.8 124.8C324.8 116.32 336.98 109.45 352 109.45C367.02 109.45 379.2 116.32 379.2 124.8" id="g7eaPAAO7i"></path><path d="M324.8 199.36C324.8 210.88 324.8 217.28 324.8 218.56C325.78 226.01 338.75 231.98 353.78 231.9C368.8 231.81 380.18 225.69 379.2 218.24C379.2 216.96 379.2 210.56 379.2 199.04M378.72 200.64C378.72 209.6 366.69 216.86 351.84 216.86C336.99 216.86 324.96 209.6 324.96 200.64M324.8 201.28C324.8 192.8 336.98 185.93 352 185.93C367.02 185.93 379.2 192.8 379.2 201.28" id="i1Y1hCJVMy"></path><path d="M324.8 275.84C324.8 287.36 324.8 293.76 324.8 295.04C325.78 302.49 338.75 308.46 353.78 308.38C368.8 308.29 380.18 302.17 379.2 294.72C379.2 293.44 379.2 287.04 379.2 275.52M378.72 277.12C378.72 286.08 366.69 293.34 351.84 293.34C336.99 293.34 324.96 286.08 324.96 277.12M324.8 277.76C324.8 269.28 336.98 262.41 352 262.41C367.02 262.41 379.2 269.28 379.2 277.76" id="bbbXB90y3"></path><path d="M324.8 428.8C324.8 440.32 324.8 446.72 324.8 448C325.78 455.45 338.75 461.42 353.78 461.34C368.8 461.25 380.18 455.13 379.2 447.68C379.2 446.4 379.2 440 379.2 428.48M378.72 430.08C378.72 439.04 366.69 446.3 351.84 446.3C336.99 446.3 324.96 439.04 324.96 430.08M324.8 430.72C324.8 422.24 336.98 415.37 352 415.37C367.02 415.37 379.2 422.24 379.2 430.72" id="jmopYN9cR"></path><path d="M260.8 159.68C260.8 171.2 260.8 177.6 260.8 178.88C261.78 186.33 274.75 192.3 289.78 192.22C304.8 192.13 316.18 186.01 315.2 178.56C315.2 177.28 315.2 170.88 315.2 159.36M314.72 160.96C314.72 169.92 302.69 177.18 287.84 177.18C272.99 177.18 260.96 169.92 260.96 160.96M260.8 161.6C260.8 153.12 272.98 146.25 288 146.25C303.02 146.25 315.2 153.12 315.2 161.6" id="e4KNQ4dXM"></path><path d="M260.8 312.32C260.8 323.84 260.8 330.24 260.8 331.52C261.78 338.97 274.75 344.94 289.78 344.86C304.8 344.77 316.18 338.65 315.2 331.2C315.2 329.92 315.2 323.52 315.2 312M314.72 313.6C314.72 322.56 302.69 329.82 287.84 329.82C272.99 329.82 260.96 322.56 260.96 313.6M260.8 314.24C260.8 305.76 272.98 298.89 288 298.89C303.02 298.89 315.2 305.76 315.2 314.24" id="a7atzhNWi"></path><path d="M260.8 388.8C260.8 400.32 260.8 406.72 260.8 408C261.78 415.45 274.75 421.42 289.78 421.34C304.8 421.25 316.18 415.13 315.2 407.68C315.2 406.4 315.2 400 315.2 388.48M314.72 390.08C314.72 399.04 302.69 406.3 287.84 406.3C272.99 406.3 260.96 399.04 260.96 390.08M260.8 390.72C260.8 382.24 272.98 375.37 288 375.37C303.02 375.37 315.2 382.24 315.2 390.72" id="b1pGVN83h0"></path><path d="M196.8 199.36C196.8 210.88 196.8 217.28 196.8 218.56C197.78 226.01 210.75 231.98 225.78 231.9C240.8 231.81 252.18 225.69 251.2 218.24C251.2 216.96 251.2 210.56 251.2 199.04M250.72 200.64C250.72 209.6 238.69 216.86 223.84 216.86C208.99 216.86 196.96 209.6 196.96 200.64M196.8 201.28C196.8 192.8 208.98 185.93 224 185.93C239.02 185.93 251.2 192.8 251.2 201.28" id="kr9wlffJX"></path><path d="M133.79 236.16C133.79 247.68 133.79 254.08 133.79 255.36C134.77 262.81 147.74 268.78 162.77 268.7C177.79 268.61 189.17 262.49 188.19 255.04C188.19 253.76 188.19 247.36 188.19 235.84M187.71 237.44C187.71 246.4 175.68 253.66 160.83 253.66C145.98 253.66 133.95 246.4 133.95 237.44M133.79 238.08C133.79 229.6 145.97 222.73 160.99 222.73C176.01 222.73 188.19 229.6 188.19 238.08" id="e4YRec2PIP"></path><path d="M196.8 275.84C196.8 287.36 196.8 293.76 196.8 295.04C197.78 302.49 210.75 308.46 225.78 308.38C240.8 308.29 252.18 302.17 251.2 294.72C251.2 293.44 251.2 287.04 251.2 275.52M250.72 277.12C250.72 286.08 238.69 293.34 223.84 293.34C208.99 293.34 196.96 286.08 196.96 277.12M196.8 277.76C196.8 269.28 208.98 262.41 224 262.41C239.02 262.41 251.2 269.28 251.2 277.76" id="boq6fPEIx"></path><path d="M442.88 238.08L481.28 260.48L289.28 375.04L97.28 263.04L97.28 338.24L353.28 488L353.28 562.24L225.28 487.04L225.28 336.96M223.36 338.56L261.76 315.2M377.6 426.24L417.44 449.28L417.44 524.8L353.44 562.56M353.44 488L417.44 449.28M289.76 524.8L289.76 449.28M288.64 450.88L325.76 429.44M224.32 413.44L261.44 391.68M161.44 375.68L161.44 300.48L196.64 279.36M97.44 262.72L132.64 242.24M166.24 222.72L198.24 203.52M228.32 185.6L260.32 166.4M293.92 146.56L325.92 127.36M356 109.76L388 90.88M442.4 87.68L481.44 111.04L481.44 185.92L419.04 223.04M417.44 223.04L417.44 148.48L380.32 126.72M316.32 164L353.44 185.76L481.44 110.88M187.04 240.16L226.08 262.24L325.28 202.72M251.68 201.76L353.12 260.8L388.32 240.32M378.72 200.64L416.48 222.4M378.08 275.2L417.44 298.24L417.44 374.72M314.4 313.28L353.76 336.32L353.76 412.8M315.36 390.4L353.44 412.8L481.44 336L481.44 260.48M289.76 222.4L289.76 297.92L324.96 277.6M251.36 277.6L289.76 299.36" id="f1DEZALm1"></path></defs><g><g><g><use xlink:href="#g2oSzHQR0" opacity="1" fill="#ffffff" fill-opacity="1"></use></g><g><use xlink:href="#d7F39DAfpa" opacity="1" fill="#000000" fill-opacity="1"></use></g><g><use xlink:href="#l1cRkwb70J" opacity="1" fill="#000000" fill-opacity="1"></use></g><g><use xlink:href="#bxj5NT8NZ" opacity="1" fill="#000000" fill-opacity="1"></use></g><g><use xlink:href="#apiUZUchI" opacity="1" fill="#000000" fill-opacity="0"></use><g><use xlink:href="#apiUZUchI" opacity="1" fill-opacity="0" stroke="#000000" stroke-width="3" stroke-opacity="1"></use></g></g><g><use xlink:href="#ddPNGqHJY" opacity="1" fill="#000000" fill-opacity="0"></use><g><use xlink:href="#ddPNGqHJY" opacity="1" fill-opacity="0" stroke="#000000" stroke-width="3" stroke-opacity="1"></use></g></g><g><use xlink:href="#g7eaPAAO7i" opacity="1" fill="#000000" fill-opacity="0"></use><g><use xlink:href="#g7eaPAAO7i" opacity="1" fill-opacity="0" stroke="#000000" stroke-width="3" stroke-opacity="1"></use></g></g><g><use xlink:href="#i1Y1hCJVMy" opacity="1" fill="#000000" fill-opacity="0"></use><g><use xlink:href="#i1Y1hCJVMy" opacity="1" fill-opacity="0" stroke="#000000" stroke-width="3" stroke-opacity="1"></use></g></g><g><use xlink:href="#bbbXB90y3" opacity="1" fill="#000000" fill-opacity="0"></use><g><use xlink:href="#bbbXB90y3" opacity="1" fill-opacity="0" stroke="#000000" stroke-width="3" stroke-opacity="1"></use></g></g><g><use xlink:href="#jmopYN9cR" opacity="1" fill="#000000" fill-opacity="0"></use><g><use xlink:href="#jmopYN9cR" opacity="1" fill-opacity="0" stroke="#000000" stroke-width="3" stroke-opacity="1"></use></g></g><g><use xlink:href="#e4KNQ4dXM" opacity="1" fill="#000000" fill-opacity="0"></use><g><use xlink:href="#e4KNQ4dXM" opacity="1" fill-opacity="0" stroke="#000000" stroke-width="3" stroke-opacity="1"></use></g></g><g><use xlink:href="#a7atzhNWi" opacity="1" fill="#000000" fill-opacity="0"></use><g><use xlink:href="#a7atzhNWi" opacity="1" fill-opacity="0" stroke="#000000" stroke-width="3" stroke-opacity="1"></use></g></g><g><use xlink:href="#b1pGVN83h0" opacity="1" fill="#000000" fill-opacity="0"></use><g><use xlink:href="#b1pGVN83h0" opacity="1" fill-opacity="0" stroke="#000000" stroke-width="3" stroke-opacity="1"></use></g></g><g><use xlink:href="#kr9wlffJX" opacity="1" fill="#000000" fill-opacity="0"></use><g><use xlink:href="#kr9wlffJX" opacity="1" fill-opacity="0" stroke="#000000" stroke-width="3" stroke-opacity="1"></use></g></g><g><use xlink:href="#e4YRec2PIP" opacity="1" fill="#000000" fill-opacity="0"></use><g><use xlink:href="#e4YRec2PIP" opacity="1" fill-opacity="0" stroke="#000000" stroke-width="3" stroke-opacity="1"></use></g></g><g><use xlink:href="#boq6fPEIx" opacity="1" fill="#000000" fill-opacity="0"></use><g><use xlink:href="#boq6fPEIx" opacity="1" fill-opacity="0" stroke="#000000" stroke-width="3" stroke-opacity="1"></use></g></g><g><use xlink:href="#f1DEZALm1" opacity="1" fill="#000000" fill-opacity="0"></use><g><use xlink:href="#f1DEZALm1" opacity="1" fill-opacity="0" stroke="#000000" stroke-width="3" stroke-opacity="1"></use></g></g></g></g></svg>