<svg width="26" height="26" xmlns="http://www.w3.org/2000/svg">

 <g>
  <title>background</title>
  <rect fill="none" id="canvas_background" height="28" width="28" y="-1" x="-1"/>
 </g>
 <g>
  <title>Layer 1</title>
  <path fill="#ffffff" id="svg_1" d="m11.546875,9.46875c0.085938,0.230469 0.128906,0.515625 0.128906,0.851563c0,0.402343 -0.046875,0.734375 -0.136718,0.992187c-0.089844,0.25 -0.210938,0.449219 -0.359375,0.589844c-0.152344,0.140625 -0.324219,0.242187 -0.519532,0.296875c-0.199218,0.0625 -0.414062,0.09375 -0.636718,0.09375c-0.058594,0 -0.175782,-0.007813 -0.347657,-0.023438c-0.113281,-0.011718 -0.191406,-0.023437 -0.246093,-0.03125l0,-3.625c0.1875,-0.039062 0.421875,-0.054687 0.691406,-0.054687c0.207031,0 0.410156,0.027344 0.601562,0.089844c0.183594,0.058593 0.347657,0.152343 0.488282,0.28125c0.140625,0.132812 0.253906,0.3125 0.335937,0.539062zm14.453125,-4.59375l0,16.25c0,2.691406 -2.183594,4.875 -4.875,4.875l-16.25,0c-2.691406,0 -4.875,-2.183594 -4.875,-4.875l0,-16.25c0,-2.691406 2.183594,-4.875 4.875,-4.875l16.25,0c2.691406,0 4.875,2.183594 4.875,4.875zm-12.269531,7.300781c0.203125,-0.503906 0.304687,-1.121093 0.304687,-1.839843c0,-0.792969 -0.121093,-1.449219 -0.363281,-1.949219c-0.242187,-0.5 -0.5625,-0.898438 -0.953125,-1.175781c-0.386719,-0.277344 -0.832031,-0.464844 -1.320312,-0.558594c-0.929688,-0.175781 -1.894532,-0.167969 -2.859375,-0.0625c-0.457032,0.046875 -0.886719,0.113281 -1.277344,0.199219c-0.058594,0.015625 -0.097656,0.066406 -0.097656,0.121093l0,11.089844c0,0.070313 0.054687,0.125 0.125,0.125l2.015625,0c0.066406,0 0.125,-0.054687 0.125,-0.125l0,-3.710937c0.023437,0.003906 0.050781,0.007812 0.078125,0.011718c0.101562,0.011719 0.207031,0.019532 0.316406,0.023438c0.109375,0.003906 0.214844,0.007812 0.3125,0.007812l0.207031,0c0.46875,0 0.933594,-0.070312 1.375,-0.214843c0.449219,-0.140625 0.847656,-0.378907 1.191406,-0.699219c0.34375,-0.320313 0.617188,-0.738281 0.820313,-1.242188zm5.503906,3.585938c0,-0.457031 -0.074219,-0.847656 -0.226562,-1.160156c-0.152344,-0.3125 -0.347657,-0.578125 -0.578125,-0.796875c-0.234375,-0.214844 -0.480469,-0.394532 -0.738282,-0.539063c-0.25,-0.136719 -0.488281,-0.269531 -0.710937,-0.398437c-0.214844,-0.121094 -0.394531,-0.25 -0.527344,-0.375c-0.117187,-0.109375 -0.175781,-0.242188 -0.175781,-0.410157c0,-0.246093 0.074219,-0.53125 0.65625,-0.53125c0.265625,0 0.539062,0.039063 0.816406,0.113282c0.277344,0.078125 0.519531,0.160156 0.71875,0.242187c0.035156,0.015625 0.070313,0.015625 0.101563,0c0.035156,-0.015625 0.058593,-0.042969 0.066406,-0.078125l0.449219,-1.472656c0.015625,-0.054688 -0.003907,-0.113281 -0.054688,-0.140625c-0.253906,-0.15625 -0.601562,-0.289063 -1.027344,-0.390625c-0.421875,-0.105469 -0.878906,-0.15625 -1.355468,-0.15625c-0.820313,0 -1.453125,0.214844 -1.882813,0.644531c-0.425781,0.425781 -0.644531,1.039063 -0.644531,1.816406c0,0.453125 0.078125,0.839844 0.230469,1.144532c0.148437,0.300781 0.34375,0.558593 0.578125,0.773437c0.234375,0.207031 0.480468,0.386719 0.734375,0.527344c0.25,0.136719 0.488281,0.273437 0.710937,0.40625c0.214844,0.125 0.390625,0.265625 0.523438,0.40625c0.125,0.132812 0.183593,0.292969 0.183593,0.484375c0,0.203125 -0.0625,0.347656 -0.1875,0.433594c-0.136718,0.097656 -0.320312,0.144531 -0.535156,0.144531c-0.308594,0 -0.605469,-0.046875 -0.882812,-0.136719c-0.28125,-0.09375 -0.535157,-0.203125 -0.753907,-0.324219c-0.03125,-0.019531 -0.070312,-0.023437 -0.105468,-0.011718c-0.035157,0.015625 -0.0625,0.042968 -0.074219,0.078125l-0.527344,1.535156c-0.019531,0.054687 0.003906,0.113281 0.050781,0.144531c0.265625,0.179688 0.621094,0.324219 1.054688,0.433594c0.429687,0.109375 0.875,0.164062 1.316406,0.164062c0.917969,0 1.621094,-0.238281 2.089844,-0.707031c0.46875,-0.472656 0.707031,-1.097656 0.707031,-1.863281z"/>
 </g>
</svg>